<?xml version="1.0"?>
<svg version="1.1" xmlns="http://www.w3.org/2000/svg" width="262px" height="36px" style=""><path fill="#f50a25" d="M15,28.14c0,4.17-3.39,6.42-7.29,6.42c-1.8,0-3.93-0.33-5.73-0.96c-0.39-0.15-0.51-0.33-0.51-0.57c0-0.12,0-0.24,0.06-0.39l0.63-1.95c0.09-0.3,0.24-0.48,0.54-0.48c0.12,0,0.27,0.03,0.45,0.09c1.41,0.51,2.97,0.9,4.47,0.9c1.62,0,3.45-0.78,3.45-2.67c0-1.38-1.02-2.13-2.19-2.7l-3.9-1.95c-2.13-1.05-3.54-2.82-3.54-5.16c0-3.66,3.6-5.67,6.93-5.67c1.98,0,3.63,0.3,5.37,1.05c0.39,0.18,0.6,0.36,0.6,0.6c0,0.12-0.03,0.24-0.09,0.39l-0.72,1.83c-0.12,0.33-0.3,0.45-0.51,0.45c-0.15,0-0.3-0.06-0.48-0.12c-1.23-0.51-2.76-0.93-3.96-0.93c-1.41,0-3.03,0.6-3.03,2.28c0,1.23,1.14,1.95,2.13,2.43l3.33,1.62c2.37,1.14,3.99,2.73,3.99,5.49z M36.345,33.45c0,0.54-0.21,0.75-0.72,0.75l-2.37,0c-0.54,0-0.78-0.21-0.78-0.75l0-8.37l-8.52,0l0,8.37c0,0.54-0.24,0.75-0.75,0.75l-2.34,0c-0.54,0-0.81-0.21-0.81-0.75l0-19.29c0-0.51,0.33-0.72,0.81-0.72l2.34,0c0.48,0,0.75,0.18,0.75,0.72l0,7.83l8.52,0l0-7.83c0-0.51,0.3-0.72,0.78-0.72l2.37,0c0.48,0,0.72,0.18,0.72,0.72l0,19.29z M60.03,23.7c0,6.78-3.87,10.86-9.24,10.86c-5.73,0-9.03-4.17-9.03-10.68c0-6.45,3.6-10.83,9.24-10.83c5.94,0,9.03,4.5,9.03,10.65z M55.89,23.79c0-5.04-1.77-7.47-4.98-7.47c-3,0-5.01,2.79-5.01,7.47c0,4.98,1.83,7.5,5.01,7.5c2.97,0,4.98-2.61,4.98-7.5z M78.825,19.98c0,4.65-3.51,6.93-7.92,6.93c-0.24,0-1.59-0.06-1.8-0.09l0,6.66c0,0.45-0.18,0.72-0.75,0.72l-2.4,0c-0.48,0-0.72-0.21-0.72-0.81l0-19.14c0-0.6,0.18-0.81,0.75-0.81l4.35,0c3.18,0,5.52,0.6,6.99,2.28c0.96,1.11,1.5,2.64,1.5,4.26z M74.925,20.13c0-2.73-1.68-3.69-4.26-3.69l-1.56,0l0,7.44c0.24,0,1.59,0.03,1.77,0.03c2.55,0,4.05-1.2,4.05-3.78z M89.07,27.21c0,0.57-0.18,0.81-0.75,0.81l-5.04,0c-0.57,0-0.72-0.3-0.72-0.78l0-1.95c0-0.51,0.15-0.72,0.69-0.72l5.04,0c0.6,0,0.78,0.21,0.78,0.75l0,1.89z M109.425,33.81c0,0.24-0.18,0.39-0.48,0.39l-3,0c-0.72,0-1.05-0.24-1.44-0.75l-6.48-8.31l-0.06,0l0,8.31c0,0.54-0.21,0.75-0.72,0.75l-2.4,0c-0.54,0-0.75-0.21-0.75-0.75l0-19.29c0-0.51,0.27-0.72,0.75-0.72l2.4,0c0.48,0,0.72,0.18,0.72,0.72l0,8.49l0.06,0l6.18-8.67c0.27-0.36,0.63-0.54,1.11-0.54l2.4,0c0.3,0,0.48,0.18,0.48,0.39c0,0.12-0.03,0.24-0.12,0.36l-6.9,9.27l7.98,9.81c0.15,0.18,0.27,0.39,0.27,0.54z M130.62,33.72c0,0.3-0.15,0.48-0.54,0.48l-2.67,0c-0.63,0-0.84-0.24-1.02-0.72l-1.56-4.41l-7.59,0l-1.56,4.5c-0.12,0.39-0.33,0.63-0.81,0.63l-2.67,0c-0.3,0-0.42-0.15-0.42-0.39c0-0.09,0-0.21,0.06-0.33l7.32-19.44c0.15-0.36,0.36-0.6,0.81-0.6l2.4,0c0.45,0,0.72,0.21,0.84,0.54l7.35,19.35c0.06,0.15,0.06,0.27,0.06,0.39z M123.81,26.16l-2.13-6.33c-0.27-0.84-0.45-1.47-0.6-1.95l-0.06,0c-0.15,0.51-0.33,1.14-0.63,1.98l-2.13,6.3l5.55,0z M149.685,33.84c0,0.24-0.18,0.36-0.45,0.36l-2.73,0c-0.54,0-0.9-0.15-1.17-0.6l-4.32-7.05l-2.31,0l0,6.9c0,0.45-0.18,0.75-0.69,0.75l-2.46,0c-0.51,0-0.72-0.24-0.72-0.75l0-19.14c0-0.66,0.15-0.87,0.81-0.87l4.44,0c2.61,0,5.37,0.39,6.96,2.22c0.96,1.11,1.44,2.58,1.44,4.2c0,2.76-1.47,4.92-3.87,5.97l4.92,7.59c0.09,0.15,0.15,0.3,0.15,0.42z M144.555,19.92c0-2.61-1.74-3.54-4.35-3.54l-1.5,0l0,7.26l1.86,0c2.4,0,3.99-1.29,3.99-3.72z M171.81,23.7c0,6.78-3.87,10.86-9.24,10.86c-5.73,0-9.03-4.17-9.03-10.68c0-6.45,3.6-10.83,9.24-10.83c5.94,0,9.03,4.5,9.03,10.65z M167.67,23.79c0-5.04-1.77-7.47-4.98-7.47c-3,0-5.01,2.79-5.01,7.47c0,4.98,1.83,7.5,5.01,7.5c2.97,0,4.98-2.61,4.98-7.5z"/><path fill="#0905f2" d="M187.255,24.812c0,0.13-0.065,0.208-0.234,0.208l-1.157,0c-0.273,0-0.364-0.104-0.442-0.312l-0.676-1.911l-3.289,0l-0.676,1.95c-0.052,0.169-0.143,0.273-0.351,0.273l-1.157,0c-0.13,0-0.182-0.065-0.182-0.169c0-0.039,0-0.091,0.026-0.143l3.172-8.424c0.065-0.156,0.156-0.26,0.351-0.26l1.04,0c0.195,0,0.312,0.091,0.364,0.234l3.185,8.385c0.026,0.065,0.026,0.117,0.026,0.169z M184.304,21.536l-0.923-2.743c-0.117-0.364-0.195-0.637-0.26-0.845l-0.026,0c-0.065,0.221-0.143,0.494-0.273,0.858l-0.923,2.73l2.405,0z M194.5545,24.695c0,0.221-0.13,0.325-0.286,0.325l-0.845,0c-0.208,0-0.299-0.104-0.312-0.26l-0.026-0.351c-0.364,0.416-1.092,0.767-1.768,0.767c-1.885,0-2.743-1.495-2.743-3.237c0-1.82,1.014-3.406,2.847-3.406c0.585,0,1.196,0.234,1.56,0.611l0-2.925c0-0.234,0.065-0.325,0.273-0.351l0.962-0.13c0.013,0,0.117-0.013,0.13-0.013c0.156,0,0.208,0.065,0.208,0.26l0,8.71z M192.9815,23.252l0-2.821c-0.26-0.351-0.754-0.637-1.248-0.637c-1.053,0-1.521,0.988-1.521,2.054s0.39,2.054,1.443,2.054c0.481,0,1.066-0.325,1.326-0.65z M206.378,24.695c0,0.234-0.091,0.325-0.312,0.325l-0.91,0c-0.234,0-0.338-0.091-0.338-0.325l0-3.562c0-0.702-0.182-1.235-0.975-1.235c-0.494,0-1.066,0.26-1.469,0.585c0.026,0.117,0.052,1.859,0.052,2.041l0,2.171c0,0.234-0.091,0.325-0.312,0.325l-0.858,0c-0.234,0-0.338-0.091-0.338-0.325l0-3.562c0-0.689-0.143-1.235-0.936-1.235c-0.507,0-1.027,0.286-1.443,0.65l0,4.147c0,0.234-0.104,0.325-0.325,0.325l-0.91,0c-0.234,0-0.338-0.091-0.338-0.325l0-5.681c0-0.208,0.117-0.299,0.312-0.299l0.845,0c0.195,0,0.312,0.065,0.325,0.247l0.013,0.325c0.533-0.468,1.235-0.741,1.911-0.741c0.793,0,1.352,0.351,1.651,0.845c0.585-0.559,1.43-0.845,2.223-0.845c0.949,0,1.547,0.468,1.82,0.975c0.247,0.481,0.312,1.053,0.312,1.885l0,3.289z M210.5445,17.064c0,0.507-0.442,0.819-0.871,0.819s-0.884-0.286-0.884-0.806s0.429-0.832,0.884-0.832c0.442,0,0.871,0.299,0.871,0.819z M210.4665,24.695c0,0.234-0.104,0.325-0.325,0.325l-0.91,0c-0.234,0-0.338-0.091-0.338-0.325l0-5.681c0-0.221,0.13-0.299,0.338-0.299l0.91,0c0.208,0,0.325,0.065,0.325,0.299l0,5.681z M218.611,24.682c0,0.221-0.078,0.338-0.312,0.338l-0.936,0c-0.234,0-0.312-0.117-0.312-0.338l0-3.536c0-0.715-0.195-1.222-0.988-1.222c-0.507,0-1.131,0.273-1.534,0.624l0,4.147c0,0.221-0.091,0.325-0.312,0.325l-0.949,0c-0.195,0-0.312-0.104-0.312-0.312l0-5.668c0-0.208,0.091-0.325,0.325-0.325l0.845,0c0.182,0,0.299,0.052,0.312,0.247l0.013,0.338c0.598-0.481,1.352-0.754,2.106-0.754c1.456,0,2.054,0.91,2.054,2.327l0,3.809z M230.961,18.858c0,2.015-1.521,3.003-3.432,3.003c-0.104,0-0.689-0.026-0.78-0.039l0,2.886c0,0.195-0.078,0.312-0.325,0.312l-1.04,0c-0.208,0-0.312-0.091-0.312-0.351l0-8.294c0-0.26,0.078-0.351,0.325-0.351l1.885,0c1.378,0,2.392,0.26,3.029,0.988c0.416,0.481,0.65,1.144,0.65,1.846z M229.271,18.923c0-1.183-0.728-1.599-1.846-1.599l-0.676,0l0,3.224c0.104,0,0.689,0.013,0.767,0.013c1.105,0,1.755-0.52,1.755-1.638z M239.0665,24.773c0,0.156-0.104,0.247-0.26,0.247l-0.624,0c-0.676,0-0.975-0.325-1.066-0.767l-0.026,0c-0.325,0.481-1.17,0.923-1.885,0.923c-1.833,0-2.665-1.508-2.665-3.198c0-2.249,1.352-3.432,2.808-3.432c0.689,0,1.339,0.312,1.664,0.754l0.026-0.351c0.013-0.143,0.117-0.234,0.273-0.234l0.91,0c0.169,0,0.273,0.091,0.273,0.286l0,4.511c0,0.182,0.026,0.312,0.078,0.377c0.039,0.039,0.091,0.052,0.156,0.052l0.104,0c0.156,0,0.234,0.052,0.234,0.221l0,0.611z M236.9215,23.005l0-2.509c-0.26-0.377-0.793-0.663-1.287-0.663c-0.793,0-1.469,0.676-1.469,2.041c0,1.092,0.416,2.015,1.378,2.015c0.637,0,1.183-0.481,1.378-0.884z M246.626,24.682c0,0.221-0.078,0.338-0.312,0.338l-0.936,0c-0.234,0-0.312-0.117-0.312-0.338l0-3.536c0-0.715-0.195-1.222-0.988-1.222c-0.507,0-1.131,0.273-1.534,0.624l0,4.147c0,0.221-0.091,0.325-0.312,0.325l-0.949,0c-0.195,0-0.312-0.104-0.312-0.312l0-5.668c0-0.208,0.091-0.325,0.325-0.325l0.845,0c0.182,0,0.299,0.052,0.312,0.247l0.013,0.338c0.598-0.481,1.352-0.754,2.106-0.754c1.456,0,2.054,0.91,2.054,2.327l0,3.809z M254.5495,21.848c0,0.312-0.104,0.377-0.429,0.377l-3.809,0c0.104,1.001,0.832,1.69,1.859,1.69c0.546,0,1.118-0.13,1.599-0.312c0.052-0.013,0.091-0.039,0.143-0.039c0.091,0,0.156,0.052,0.182,0.156l0.182,0.663c0.013,0.065,0.026,0.117,0.026,0.156c0,0.091-0.052,0.156-0.208,0.221c-0.637,0.286-1.508,0.416-2.184,0.416c-2.041,0-3.25-1.3-3.25-3.328c0-1.95,1.287-3.302,3.224-3.302c0.793,0,1.443,0.299,1.898,0.78c0.598,0.624,0.767,1.443,0.767,2.327l0,0.195z M253.0025,21.198l0-0.143c-0.026-0.676-0.416-1.3-1.209-1.3c-0.845,0-1.352,0.676-1.456,1.443l2.665,0z M258.079,24.695c0,0.221-0.104,0.325-0.286,0.325l-0.988,0c-0.182,0-0.299-0.091-0.299-0.312l0-8.528c0-0.221,0.091-0.286,0.26-0.312l0.936-0.13c0.026,0,0.065-0.013,0.091-0.013c0.156,0,0.286,0.078,0.286,0.286l0,8.684z"/></svg>
